<svg width="64" height="64" viewBox="0 0 64 64" fill="none" xmlns="http://www.w3.org/2000/svg">
<rect width="64" height="64" rx="8" fill="#00C0E8"/>
<path d="M10.1133 46.0703C10.1133 45.7995 10.1302 45.5964 10.1641 45.4609C10.2318 45.3255 10.3672 45.1055 10.5703 44.8008C11.4844 43.3789 12.3984 41.957 13.3125 40.5352C14.2604 39.0794 15.1068 37.6068 15.8516 36.1172C16.6302 34.5938 17.2565 33.0365 17.7305 31.4453C18.2044 29.8542 18.4414 28.1953 18.4414 26.4688C17.4258 26.4688 16.5286 26.7734 15.75 27.3828C14.9714 27.9922 14.2266 28.6693 13.5156 29.4141C12.8047 30.1589 12.1107 30.8359 11.4336 31.4453C10.7565 32.0547 10.0286 32.3594 9.25 32.3594C9.01302 32.3594 8.75911 32.3424 8.48828 32.3086C8.21745 32.2409 7.96354 32.1562 7.72656 32.0547C7.48958 31.9193 7.28646 31.75 7.11719 31.5469C6.94792 31.3099 6.86328 31.0391 6.86328 30.7344V30.6328C7.06641 30.1927 7.35417 29.7695 7.72656 29.3633C8.09896 28.9232 8.50521 28.5169 8.94531 28.1445C9.38542 27.7383 9.82552 27.3659 10.2656 27.0273C10.7057 26.6888 11.0951 26.3841 11.4336 26.1133C11.9076 25.707 12.4492 25.2839 13.0586 24.8438C13.668 24.4036 14.2943 23.9974 14.9375 23.625C15.6146 23.2188 16.3086 22.8971 17.0195 22.6602C17.7305 22.3893 18.4414 22.2539 19.1523 22.2539C20.3711 22.2539 21.2174 22.6432 21.6914 23.4219C22.1654 24.1667 22.4023 25.1315 22.4023 26.3164C22.4023 28.5508 22.013 30.7513 21.2344 32.918C20.4896 35.0508 19.5755 37.082 18.4922 39.0117V39.2148L17.1719 41.5508H17.6289C19.0508 40.7383 20.5742 40.0612 22.1992 39.5195C23.8581 38.944 25.4831 38.4701 27.0742 38.0977H27.2773C27.8867 38.0977 28.3945 38.1992 28.8008 38.4023C29.207 38.6055 29.4102 39.0794 29.4102 39.8242C29.4102 40.332 29.2747 40.7721 29.0039 41.1445C28.7331 41.2122 28.3776 41.3138 27.9375 41.4492C27.5312 41.5846 27.1758 41.6185 26.8711 41.5508L21.8945 43.3281L13.7695 47.5938C13.2279 47.8646 12.6862 48 12.1445 48C11.6706 48 11.2135 47.8138 10.7734 47.4414C10.3333 47.0352 10.1133 46.5781 10.1133 46.0703ZM38.957 46.1719C39.4987 45.4271 40.0911 44.8685 40.7344 44.4961C41.4115 44.1237 42.0885 43.819 42.7656 43.582C43.4766 43.3451 44.1706 43.125 44.8477 42.9219C45.5586 42.6849 46.2526 42.3125 46.9297 41.8047C47.3021 41.6016 47.8268 41.2969 48.5039 40.8906C49.181 40.4844 49.8411 40.0443 50.4844 39.5703C51.1615 39.0625 51.737 38.5716 52.2109 38.0977C52.7188 37.6237 52.9727 37.2174 52.9727 36.8789C52.9727 36.8451 52.9557 36.8281 52.9219 36.8281C52.8542 36.8281 52.8203 36.8112 52.8203 36.7773L52.7188 36.6758C52.5495 36.6081 52.2786 36.5234 51.9062 36.4219C51.5339 36.3203 51.3138 36.2526 51.2461 36.2188C46.8789 35.7109 43.3581 35.2708 40.6836 34.8984C38.043 34.4922 35.9948 34.069 34.5391 33.6289C33.1172 33.1888 32.1693 32.681 31.6953 32.1055C31.2214 31.5299 30.9844 30.8021 30.9844 29.9219C30.9844 29.5833 31.0521 29.2109 31.1875 28.8047C31.3229 28.3984 31.4753 27.9922 31.6445 27.5859C31.8477 27.1797 32.0508 26.8073 32.2539 26.4688C32.457 26.1302 32.6432 25.8594 32.8125 25.6562C33.3542 24.9792 34.0651 24.3698 34.9453 23.8281C35.8255 23.2865 36.7734 22.8125 37.7891 22.4062C38.8047 22 39.8203 21.6445 40.8359 21.3398C41.8854 21.0352 42.8333 20.7643 43.6797 20.5273C44.6276 20.4596 45.5755 20.2396 46.5234 19.8672C47.5052 19.4609 48.4701 19.1901 49.418 19.0547C49.8919 19.0547 50.2812 19.2409 50.5859 19.6133C50.8906 19.9857 51.043 20.375 51.043 20.7812C51.043 21.3568 50.9245 21.7969 50.6875 22.1016C50.4844 22.3724 50.1966 22.5924 49.8242 22.7617C49.4857 22.8971 49.0964 23.0156 48.6562 23.1172C48.2161 23.1849 47.776 23.2695 47.3359 23.3711C47.0651 23.4388 46.6927 23.5404 46.2188 23.6758C45.7448 23.7773 45.2708 23.8958 44.7969 24.0312C44.3229 24.1667 43.8997 24.2852 43.5273 24.3867C43.1549 24.4883 42.9349 24.556 42.8672 24.5898C41.8177 25.0299 40.819 25.4531 39.8711 25.8594C38.957 26.2318 38.1445 26.6211 37.4336 27.0273C36.7565 27.4336 36.2148 27.8737 35.8086 28.3477C35.4362 28.7878 35.2669 29.2786 35.3008 29.8203V29.8711C35.6393 30.3451 36.401 30.7005 37.5859 30.9375C38.7708 31.1745 40.1589 31.3776 41.75 31.5469C43.375 31.7161 45.0677 31.8854 46.8281 32.0547C48.6224 32.224 50.2643 32.4779 51.7539 32.8164C53.2435 33.1549 54.4792 33.612 55.4609 34.1875C56.4427 34.763 56.9505 35.5417 56.9844 36.5234C56.9844 36.8958 56.8997 37.3359 56.7305 37.8438C56.5951 38.3516 56.3919 38.7409 56.1211 39.0117C55.2747 39.9596 54.2591 40.9414 53.0742 41.957C51.9232 42.9727 50.6706 43.9206 49.3164 44.8008C47.9622 45.6471 46.5573 46.375 45.1016 46.9844C43.6797 47.5599 42.2747 47.8984 40.8867 48C40.4128 48 39.9727 47.8307 39.5664 47.4922C39.1602 47.1198 38.957 46.6797 38.957 46.1719Z" fill="white"/>
</svg>
