<svg width="64" height="64" viewBox="0 0 64 64" fill="none" xmlns="http://www.w3.org/2000/svg">
<rect width="64" height="64" rx="8" fill="#1A84CB"/>
<path d="M15.1094 46.3125C15.6094 45.625 16.1562 45.1094 16.75 44.7656C17.375 44.4219 18 44.1406 18.625 43.9219C19.2812 43.7031 19.9219 43.5 20.5469 43.3125C21.2031 43.0938 21.8438 42.75 22.4688 42.2812C22.8125 42.0938 23.2969 41.8125 23.9219 41.4375C24.5469 41.0625 25.1562 40.6562 25.75 40.2188C26.375 39.75 26.9062 39.2969 27.3438 38.8594C27.8125 38.4219 28.0469 38.0469 28.0469 37.7344C28.0469 37.7031 28.0312 37.6875 28 37.6875C27.9375 37.6875 27.9062 37.6719 27.9062 37.6406L27.8125 37.5469C27.6562 37.4844 27.4062 37.4062 27.0625 37.3125C26.7188 37.2188 26.5156 37.1562 26.4531 37.125C22.4219 36.6562 19.1719 36.25 16.7031 35.9062C14.2656 35.5312 12.375 35.1406 11.0312 34.7344C9.71875 34.3281 8.84375 33.8594 8.40625 33.3281C7.96875 32.7969 7.75 32.125 7.75 31.3125C7.75 31 7.8125 30.6562 7.9375 30.2812C8.0625 29.9062 8.20312 29.5312 8.35938 29.1562C8.54688 28.7812 8.73438 28.4375 8.92188 28.125C9.10938 27.8125 9.28125 27.5625 9.4375 27.375C9.9375 26.75 10.5938 26.1875 11.4062 25.6875C12.2188 25.1875 13.0938 24.75 14.0312 24.375C14.9688 24 15.9062 23.6719 16.8438 23.3906C17.8125 23.1094 18.6875 22.8594 19.4688 22.6406C20.3438 22.5781 21.2188 22.375 22.0938 22.0312C23 21.6562 23.8906 21.4062 24.7656 21.2812C25.2031 21.2812 25.5625 21.4531 25.8438 21.7969C26.125 22.1406 26.2656 22.5 26.2656 22.875C26.2656 23.4062 26.1562 23.8125 25.9375 24.0938C25.75 24.3438 25.4844 24.5469 25.1406 24.7031C24.8281 24.8281 24.4688 24.9375 24.0625 25.0312C23.6562 25.0938 23.25 25.1719 22.8438 25.2656C22.5938 25.3281 22.25 25.4219 21.8125 25.5469C21.375 25.6406 20.9375 25.75 20.5 25.875C20.0625 26 19.6719 26.1094 19.3281 26.2031C18.9844 26.2969 18.7812 26.3594 18.7188 26.3906C17.75 26.7969 16.8281 27.1875 15.9531 27.5625C15.1094 27.9062 14.3594 28.2656 13.7031 28.6406C13.0781 29.0156 12.5781 29.4219 12.2031 29.8594C11.8594 30.2656 11.7031 30.7188 11.7344 31.2188V31.2656C12.0469 31.7031 12.75 32.0312 13.8438 32.25C14.9375 32.4688 16.2188 32.6562 17.6875 32.8125C19.1875 32.9688 20.75 33.125 22.375 33.2812C24.0312 33.4375 25.5469 33.6719 26.9219 33.9844C28.2969 34.2969 29.4375 34.7188 30.3438 35.25C31.25 35.7812 31.7188 36.5 31.75 37.4062C31.75 37.75 31.6719 38.1562 31.5156 38.625C31.3906 39.0938 31.2031 39.4531 30.9531 39.7031C30.1719 40.5781 29.2344 41.4844 28.1406 42.4219C27.0781 43.3594 25.9219 44.2344 24.6719 45.0469C23.4219 45.8281 22.125 46.5 20.7812 47.0625C19.4688 47.5938 18.1719 47.9062 16.8906 48C16.4531 48 16.0469 47.8438 15.6719 47.5312C15.2969 47.1875 15.1094 46.7812 15.1094 46.3125ZM34.2344 40.7344C34.2344 38.3281 34.2656 35.9375 34.3281 33.5625C34.4219 31.1875 34.4688 28.7812 34.4688 26.3438C34.4688 24.9375 34.3906 23.5312 34.2344 22.125C34.1094 20.7188 34.0469 19.3125 34.0469 17.9062C34.0469 17.4688 34.1719 17.0938 34.4219 16.7812C34.7031 16.4688 35.0625 16.3125 35.5 16.3125C36.25 16.3125 36.8125 16.4688 37.1875 16.7812C37.5625 17.0938 37.8281 17.4844 37.9844 17.9531C38.1406 18.4219 38.2188 18.9531 38.2188 19.5469C38.2188 20.1406 38.2188 20.7188 38.2188 21.2812C38.2188 21.4062 38.2188 21.7188 38.2188 22.2188C38.25 22.7188 38.2812 23.2656 38.3125 23.8594C38.3438 24.4219 38.3594 24.9531 38.3594 25.4531C38.3906 25.9531 38.4062 26.2656 38.4062 26.3906V27.9375C38.4062 29.9688 38.375 31.9844 38.3125 33.9844C38.25 35.9844 38.2188 38.0156 38.2188 40.0781V42.0469C38.2188 42.2031 38.2344 42.4219 38.2656 42.7031C38.3281 42.9531 38.375 43.0781 38.4062 43.0781H38.7812L49.8906 38.6719C50.1406 38.4531 50.3594 38.3438 50.5469 38.3438C50.7344 38.3125 50.9531 38.2969 51.2031 38.2969C51.3594 38.2969 51.5625 38.3125 51.8125 38.3438C52.0625 38.3438 52.2969 38.3906 52.5156 38.4844C52.7656 38.5469 52.9688 38.6562 53.125 38.8125C53.3125 38.9375 53.4062 39.1406 53.4062 39.4219C53.4062 40.1406 53.0156 40.7656 52.2344 41.2969C51.2344 41.8281 50.2031 42.3281 49.1406 42.7969C48.0781 43.2344 47 43.5938 45.9062 43.875L45.6719 44.0625C44.1719 44.4688 42.7656 45.0625 41.4531 45.8438C40.1719 46.625 38.8281 47.3438 37.4219 48H37C36.1562 48 35.5312 47.7188 35.125 47.1562C34.7188 46.5938 34.4531 45.9375 34.3281 45.1875C34.2031 44.4062 34.1562 43.6094 34.1875 42.7969C34.2188 41.9531 34.2344 41.2656 34.2344 40.7344Z" fill="white"/>
</svg>
